<?xml version="1.0" encoding="UTF-8" standalone="no"?>
<!DOCTYPE svg PUBLIC "-//W3C//DTD SVG 1.1//EN"
 "http://www.w3.org/Graphics/SVG/1.1/DTD/svg11.dtd">
<!-- Generated by graphviz version 2.43.0 (0)
 -->
<!-- Title: pastafarianism Pages: 1 -->
<svg width="2950pt" height="680pt"
 viewBox="0.00 0.00 2950.01 680.00" xmlns="http://www.w3.org/2000/svg" xmlns:xlink="http://www.w3.org/1999/xlink">
<g id="graph0" class="graph" transform="scale(1 1) rotate(0) translate(4 676)">
<title>pastafarianism</title>
<polygon fill="white" stroke="transparent" points="-4,4 -4,-676 2946.01,-676 2946.01,4 -4,4"/>
<!-- Takeoff Mission -->
<g id="node1" class="node">
<title>Takeoff Mission</title>
<polygon fill="orange" stroke="black" points="415.58,-672 315.58,-672 315.58,-636 415.58,-636 415.58,-672"/>
<text text-anchor="middle" x="365.58" y="-651.8" font-family="Times,serif" font-size="9.00">Ⓜ Takeoff Mission</text>
</g>
<!-- Loop -->
<g id="node2" class="node">
<title>Loop</title>
<ellipse fill="ghostwhite" stroke="black" cx="319.58" cy="-582" rx="27" ry="18"/>
<text text-anchor="middle" x="319.58" y="-579.8" font-family="Times,serif" font-size="9.00">Loop</text>
</g>
<!-- Takeoff Mission&#45;&gt;Loop -->
<g id="edge1" class="edge">
<title>Takeoff Mission&#45;&gt;Loop</title>
<path fill="none" stroke="black" d="M354.21,-635.7C348.56,-627.11 341.65,-616.58 335.49,-607.21"/>
<polygon fill="black" stroke="black" points="338.3,-605.11 329.88,-598.67 332.45,-608.95 338.3,-605.11"/>
</g>
<!-- Bateria_Fraca -->
<g id="node59" class="node">
<title>Bateria_Fraca</title>
<ellipse fill="gray" stroke="black" cx="411.58" cy="-582" rx="46.53" ry="18"/>
<text text-anchor="middle" x="411.58" y="-579.8" font-family="Times,serif" font-size="9.00">Bateria_Fraca</text>
</g>
<!-- Takeoff Mission&#45;&gt;Bateria_Fraca -->
<g id="edge58" class="edge">
<title>Takeoff Mission&#45;&gt;Bateria_Fraca</title>
<path fill="none" stroke="black" d="M376.95,-635.7C382.44,-627.35 389.12,-617.18 395.14,-608.02"/>
<polygon fill="black" stroke="black" points="398.09,-609.9 400.66,-599.62 392.24,-606.06 398.09,-609.9"/>
</g>
<!-- Paralelo principal -->
<g id="node3" class="node">
<title>Paralelo principal</title>
<polygon fill="gold" stroke="black" points="422.36,-528 258.86,-528 216.8,-472 380.3,-472 422.36,-528"/>
<text text-anchor="middle" x="319.58" y="-502.8" font-family="Times,serif" font-size="9.00">Paralelo principal</text>
<text text-anchor="middle" x="319.58" y="-492.8" font-family="Times,serif" font-size="9.00">SuccessOnOne</text>
</g>
<!-- Loop&#45;&gt;Paralelo principal -->
<g id="edge2" class="edge">
<title>Loop&#45;&gt;Paralelo principal</title>
<path fill="none" stroke="black" d="M319.58,-563.64C319.58,-556.18 319.58,-547.14 319.58,-538.29"/>
<polygon fill="black" stroke="black" points="323.08,-538.08 319.58,-528.08 316.08,-538.08 323.08,-538.08"/>
</g>
<!-- Contagem_Tempo -->
<g id="node4" class="node">
<title>Contagem_Tempo</title>
<ellipse fill="gray" stroke="black" cx="56.58" cy="-418" rx="56.66" ry="18"/>
<text text-anchor="middle" x="56.58" y="-415.8" font-family="Times,serif" font-size="9.00">Contagem_Tempo</text>
</g>
<!-- Paralelo principal&#45;&gt;Contagem_Tempo -->
<g id="edge3" class="edge">
<title>Paralelo principal&#45;&gt;Contagem_Tempo</title>
<path fill="none" stroke="black" d="M230.54,-471.92C188.9,-459.25 140.9,-444.65 105.88,-434"/>
<polygon fill="black" stroke="black" points="106.5,-430.53 95.91,-430.96 104.46,-437.22 106.5,-430.53"/>
</g>
<!-- Mostragem_Bateria -->
<g id="node5" class="node">
<title>Mostragem_Bateria</title>
<ellipse fill="gray" stroke="black" cx="192.58" cy="-418" rx="61.55" ry="18"/>
<text text-anchor="middle" x="192.58" y="-415.8" font-family="Times,serif" font-size="9.00">Mostragem_Bateria</text>
</g>
<!-- Paralelo principal&#45;&gt;Mostragem_Bateria -->
<g id="edge4" class="edge">
<title>Paralelo principal&#45;&gt;Mostragem_Bateria</title>
<path fill="none" stroke="black" d="M276.58,-471.92C260.1,-461.53 241.55,-449.85 226.09,-440.11"/>
<polygon fill="black" stroke="black" points="227.7,-436.99 217.38,-434.62 223.97,-442.91 227.7,-436.99"/>
</g>
<!-- Desvio Parede -->
<g id="node6" class="node">
<title>Desvio Parede</title>
<polygon fill="orange" stroke="black" points="367.08,-436 272.08,-436 272.08,-400 367.08,-400 367.08,-436"/>
<text text-anchor="middle" x="319.58" y="-415.8" font-family="Times,serif" font-size="9.00">Ⓜ Desvio Parede</text>
</g>
<!-- Paralelo principal&#45;&gt;Desvio Parede -->
<g id="edge5" class="edge">
<title>Paralelo principal&#45;&gt;Desvio Parede</title>
<path fill="none" stroke="black" d="M319.58,-471.92C319.58,-463.72 319.58,-454.72 319.58,-446.49"/>
<polygon fill="black" stroke="black" points="323.08,-446.27 319.58,-436.27 316.08,-446.27 323.08,-446.27"/>
</g>
<!-- Longe chao -->
<g id="node12" class="node">
<title>Longe chao</title>
<polygon fill="orange" stroke="black" points="473.58,-436 391.58,-436 391.58,-400 473.58,-400 473.58,-436"/>
<text text-anchor="middle" x="432.58" y="-415.8" font-family="Times,serif" font-size="9.00">Ⓜ Longe chao</text>
</g>
<!-- Paralelo principal&#45;&gt;Longe chao -->
<g id="edge11" class="edge">
<title>Paralelo principal&#45;&gt;Longe chao</title>
<path fill="none" stroke="black" d="M357.84,-471.92C371.6,-462.17 386.98,-451.29 400.19,-441.93"/>
<polygon fill="black" stroke="black" points="402.38,-444.67 408.52,-436.03 398.34,-438.95 402.38,-444.67"/>
</g>
<!-- fallback_acoes -->
<g id="node22" class="node">
<title>fallback_acoes</title>
<polygon fill="cyan" stroke="black" points="1241.82,-410.54 1241.82,-425.46 1207.12,-436 1158.04,-436 1123.35,-425.46 1123.35,-410.54 1158.04,-400 1207.12,-400 1241.82,-410.54"/>
<text text-anchor="middle" x="1182.58" y="-415.8" font-family="Times,serif" font-size="9.00">Ⓜ fallback_acoes</text>
</g>
<!-- Paralelo principal&#45;&gt;fallback_acoes -->
<g id="edge21" class="edge">
<title>Paralelo principal&#45;&gt;fallback_acoes</title>
<path fill="none" stroke="black" d="M395.41,-491.97C561.13,-476.61 953.48,-440.24 1113.16,-425.43"/>
<polygon fill="black" stroke="black" points="1113.71,-428.9 1123.34,-424.49 1113.06,-421.93 1113.71,-428.9"/>
</g>
<!-- Dist_Parede_menor_q_x -->
<g id="node7" class="node">
<title>Dist_Parede_menor_q_x</title>
<ellipse fill="gray" stroke="black" cx="188.58" cy="-346" rx="72.99" ry="18"/>
<text text-anchor="middle" x="188.58" y="-343.8" font-family="Times,serif" font-size="9.00">Dist_Parede_menor_q_x</text>
</g>
<!-- Desvio Parede&#45;&gt;Dist_Parede_menor_q_x -->
<g id="edge6" class="edge">
<title>Desvio Parede&#45;&gt;Dist_Parede_menor_q_x</title>
<path fill="none" stroke="black" d="M287.53,-399.88C269.09,-390.02 245.82,-377.59 226.47,-367.25"/>
<polygon fill="black" stroke="black" points="228.08,-364.14 217.61,-362.51 224.78,-370.31 228.08,-364.14"/>
</g>
<!-- Recuada -->
<g id="node8" class="node">
<title>Recuada</title>
<polygon fill="orange" stroke="black" points="347.58,-364 279.58,-364 279.58,-328 347.58,-328 347.58,-364"/>
<text text-anchor="middle" x="313.58" y="-343.8" font-family="Times,serif" font-size="9.00">Ⓜ Recuada</text>
</g>
<!-- Desvio Parede&#45;&gt;Recuada -->
<g id="edge7" class="edge">
<title>Desvio Parede&#45;&gt;Recuada</title>
<path fill="none" stroke="black" d="M318.1,-399.7C317.44,-391.98 316.64,-382.71 315.9,-374.11"/>
<polygon fill="black" stroke="black" points="319.39,-373.77 315.05,-364.1 312.41,-374.37 319.39,-373.77"/>
</g>
<!-- Recue -->
<g id="node9" class="node">
<title>Recue</title>
<ellipse fill="gray" stroke="black" cx="188.58" cy="-264" rx="27" ry="18"/>
<text text-anchor="middle" x="188.58" y="-261.8" font-family="Times,serif" font-size="9.00">Recue</text>
</g>
<!-- Recuada&#45;&gt;Recue -->
<g id="edge8" class="edge">
<title>Recuada&#45;&gt;Recue</title>
<path fill="none" stroke="black" d="M283.01,-327.87C265.61,-317.86 243.55,-304.71 224.58,-292 221,-289.6 217.3,-286.99 213.68,-284.36"/>
<polygon fill="black" stroke="black" points="215.64,-281.45 205.52,-278.29 211.46,-287.06 215.64,-281.45"/>
</g>
<!-- Expressao_medo -->
<g id="node10" class="node">
<title>Expressao_medo</title>
<ellipse fill="gray" stroke="black" cx="287.58" cy="-264" rx="53.89" ry="18"/>
<text text-anchor="middle" x="287.58" y="-261.8" font-family="Times,serif" font-size="9.00">Expressao_medo</text>
</g>
<!-- Recuada&#45;&gt;Expressao_medo -->
<g id="edge9" class="edge">
<title>Recuada&#45;&gt;Expressao_medo</title>
<path fill="none" stroke="black" d="M307.94,-327.64C304.54,-317.19 300.15,-303.67 296.31,-291.86"/>
<polygon fill="black" stroke="black" points="299.54,-290.48 293.12,-282.05 292.88,-292.64 299.54,-290.48"/>
</g>
<!-- Vire -->
<g id="node11" class="node">
<title>Vire</title>
<ellipse fill="gray" stroke="black" cx="386.58" cy="-264" rx="27" ry="18"/>
<text text-anchor="middle" x="386.58" y="-261.8" font-family="Times,serif" font-size="9.00">Vire</text>
</g>
<!-- Recuada&#45;&gt;Vire -->
<g id="edge10" class="edge">
<title>Recuada&#45;&gt;Vire</title>
<path fill="none" stroke="black" d="M329.42,-327.64C340.25,-315.77 354.71,-299.93 366.37,-287.14"/>
<polygon fill="black" stroke="black" points="369.06,-289.39 373.22,-279.64 363.89,-284.67 369.06,-289.39"/>
</g>
<!-- Dist_chao_maior_q_x  -->
<g id="node13" class="node">
<title>Dist_chao_maior_q_x </title>
<ellipse fill="gray" stroke="black" cx="432.58" cy="-346" rx="66.95" ry="18"/>
<text text-anchor="middle" x="432.58" y="-343.8" font-family="Times,serif" font-size="9.00">Dist_chao_maior_q_x </text>
</g>
<!-- Longe chao&#45;&gt;Dist_chao_maior_q_x  -->
<g id="edge12" class="edge">
<title>Longe chao&#45;&gt;Dist_chao_maior_q_x </title>
<path fill="none" stroke="black" d="M432.58,-399.7C432.58,-391.98 432.58,-382.71 432.58,-374.11"/>
<polygon fill="black" stroke="black" points="436.08,-374.1 432.58,-364.1 429.08,-374.1 436.08,-374.1"/>
</g>
<!-- fallback_chao -->
<g id="node14" class="node">
<title>fallback_chao</title>
<polygon fill="cyan" stroke="black" points="631.32,-338.54 631.32,-353.46 598.08,-364 551.08,-364 517.84,-353.46 517.84,-338.54 551.08,-328 598.08,-328 631.32,-338.54"/>
<text text-anchor="middle" x="574.58" y="-343.8" font-family="Times,serif" font-size="9.00">Ⓜ fallback_chao</text>
</g>
<!-- Longe chao&#45;&gt;fallback_chao -->
<g id="edge13" class="edge">
<title>Longe chao&#45;&gt;fallback_chao</title>
<path fill="none" stroke="black" d="M467.32,-399.88C487.77,-389.79 513.72,-377 534.97,-366.53"/>
<polygon fill="black" stroke="black" points="536.64,-369.61 544.06,-362.05 533.54,-363.33 536.64,-369.61"/>
</g>
<!-- Balanço -->
<g id="node15" class="node">
<title>Balanço</title>
<polygon fill="orange" stroke="black" points="497.08,-282 432.08,-282 432.08,-246 497.08,-246 497.08,-282"/>
<text text-anchor="middle" x="464.58" y="-261.8" font-family="Times,serif" font-size="9.00">Ⓜ Balanço</text>
</g>
<!-- fallback_chao&#45;&gt;Balanço -->
<g id="edge14" class="edge">
<title>fallback_chao&#45;&gt;Balanço</title>
<path fill="none" stroke="black" d="M550.98,-327.84C535.03,-316.24 513.78,-300.78 496.35,-288.11"/>
<polygon fill="black" stroke="black" points="498.29,-285.18 488.14,-282.13 494.17,-290.85 498.29,-285.18"/>
</g>
<!-- Recuada* -->
<g id="node18" class="node">
<title>Recuada*</title>
<polygon fill="orange" stroke="black" points="636.08,-282 563.08,-282 563.08,-246 636.08,-246 636.08,-282"/>
<text text-anchor="middle" x="599.58" y="-261.8" font-family="Times,serif" font-size="9.00">Ⓜ Recuada*</text>
</g>
<!-- fallback_chao&#45;&gt;Recuada* -->
<g id="edge17" class="edge">
<title>fallback_chao&#45;&gt;Recuada*</title>
<path fill="none" stroke="black" d="M580,-327.64C583.27,-317.19 587.5,-303.67 591.19,-291.86"/>
<polygon fill="black" stroke="black" points="594.61,-292.64 594.25,-282.05 587.93,-290.55 594.61,-292.64"/>
</g>
<!-- Esta_Sendo_Balancado? -->
<g id="node16" class="node">
<title>Esta_Sendo_Balancado?</title>
<ellipse fill="gray" stroke="black" cx="284.58" cy="-182" rx="73.15" ry="18"/>
<text text-anchor="middle" x="284.58" y="-179.8" font-family="Times,serif" font-size="9.00">Esta_Sendo_Balancado?</text>
</g>
<!-- Balanço&#45;&gt;Esta_Sendo_Balancado? -->
<g id="edge15" class="edge">
<title>Balanço&#45;&gt;Esta_Sendo_Balancado?</title>
<path fill="none" stroke="black" d="M439.76,-245.86C434.23,-242.38 428.3,-238.9 422.58,-236 395.07,-222.06 362.99,-209.53 336.68,-200.16"/>
<polygon fill="black" stroke="black" points="337.5,-196.74 326.9,-196.73 335.18,-203.34 337.5,-196.74"/>
</g>
<!-- Expressao_enjoo -->
<g id="node17" class="node">
<title>Expressao_enjoo</title>
<ellipse fill="gray" stroke="black" cx="429.58" cy="-182" rx="53.89" ry="18"/>
<text text-anchor="middle" x="429.58" y="-179.8" font-family="Times,serif" font-size="9.00">Expressao_enjoo</text>
</g>
<!-- Balanço&#45;&gt;Expressao_enjoo -->
<g id="edge16" class="edge">
<title>Balanço&#45;&gt;Expressao_enjoo</title>
<path fill="none" stroke="black" d="M456.99,-245.64C452.37,-235.09 446.38,-221.39 441.18,-209.51"/>
<polygon fill="black" stroke="black" points="444.25,-207.81 437.04,-200.05 437.84,-210.61 444.25,-207.81"/>
</g>
<!-- Recue* -->
<g id="node19" class="node">
<title>Recue*</title>
<ellipse fill="gray" stroke="black" cx="530.58" cy="-182" rx="28.74" ry="18"/>
<text text-anchor="middle" x="530.58" y="-179.8" font-family="Times,serif" font-size="9.00">Recue*</text>
</g>
<!-- Recuada*&#45;&gt;Recue* -->
<g id="edge18" class="edge">
<title>Recuada*&#45;&gt;Recue*</title>
<path fill="none" stroke="black" d="M584.61,-245.64C574.59,-234.03 561.31,-218.63 550.42,-206"/>
<polygon fill="black" stroke="black" points="552.84,-203.45 543.66,-198.17 547.54,-208.03 552.84,-203.45"/>
</g>
<!-- Expressao_medo* -->
<g id="node20" class="node">
<title>Expressao_medo*</title>
<ellipse fill="gray" stroke="black" cx="633.58" cy="-182" rx="56.66" ry="18"/>
<text text-anchor="middle" x="633.58" y="-179.8" font-family="Times,serif" font-size="9.00">Expressao_medo*</text>
</g>
<!-- Recuada*&#45;&gt;Expressao_medo* -->
<g id="edge19" class="edge">
<title>Recuada*&#45;&gt;Expressao_medo*</title>
<path fill="none" stroke="black" d="M606.96,-245.64C611.44,-235.09 617.26,-221.39 622.32,-209.51"/>
<polygon fill="black" stroke="black" points="625.64,-210.62 626.33,-200.05 619.2,-207.88 625.64,-210.62"/>
</g>
<!-- Vire* -->
<g id="node21" class="node">
<title>Vire*</title>
<ellipse fill="gray" stroke="black" cx="735.58" cy="-182" rx="27" ry="18"/>
<text text-anchor="middle" x="735.58" y="-179.8" font-family="Times,serif" font-size="9.00">Vire*</text>
</g>
<!-- Recuada*&#45;&gt;Vire* -->
<g id="edge20" class="edge">
<title>Recuada*&#45;&gt;Vire*</title>
<path fill="none" stroke="black" d="M628.76,-245.84C651.94,-232.2 684.18,-213.23 707.17,-199.71"/>
<polygon fill="black" stroke="black" points="709.25,-202.55 716.09,-194.46 705.7,-196.52 709.25,-202.55"/>
</g>
<!-- Esta_na_acao_desviar -->
<g id="node23" class="node">
<title>Esta_na_acao_desviar</title>
<ellipse fill="gray" stroke="black" cx="954.58" cy="-346" rx="66.95" ry="18"/>
<text text-anchor="middle" x="954.58" y="-343.8" font-family="Times,serif" font-size="9.00">Esta_na_acao_desviar</text>
</g>
<!-- fallback_acoes&#45;&gt;Esta_na_acao_desviar -->
<g id="edge22" class="edge">
<title>fallback_acoes&#45;&gt;Esta_na_acao_desviar</title>
<path fill="none" stroke="black" d="M1142.34,-404.65C1104.59,-393.06 1047.92,-375.66 1006.72,-363.01"/>
<polygon fill="black" stroke="black" points="1007.71,-359.65 997.12,-360.06 1005.65,-366.34 1007.71,-359.65"/>
</g>
<!-- Esta_na_acao_longe_chao -->
<g id="node24" class="node">
<title>Esta_na_acao_longe_chao</title>
<ellipse fill="gray" stroke="black" cx="1116.58" cy="-346" rx="77.23" ry="18"/>
<text text-anchor="middle" x="1116.58" y="-343.8" font-family="Times,serif" font-size="9.00">Esta_na_acao_longe_chao</text>
</g>
<!-- fallback_acoes&#45;&gt;Esta_na_acao_longe_chao -->
<g id="edge23" class="edge">
<title>fallback_acoes&#45;&gt;Esta_na_acao_longe_chao</title>
<path fill="none" stroke="black" d="M1166.27,-399.7C1158.27,-391.22 1148.51,-380.86 1139.76,-371.58"/>
<polygon fill="black" stroke="black" points="1142.11,-368.98 1132.71,-364.1 1137.02,-373.78 1142.11,-368.98"/>
</g>
<!-- human -->
<g id="node25" class="node">
<title>human</title>
<polygon fill="cyan" stroke="black" points="1287.07,-338.54 1287.07,-353.46 1265.11,-364 1234.05,-364 1212.09,-353.46 1212.09,-338.54 1234.05,-328 1265.11,-328 1287.07,-338.54"/>
<text text-anchor="middle" x="1249.58" y="-343.8" font-family="Times,serif" font-size="9.00">Ⓜ human</text>
</g>
<!-- fallback_acoes&#45;&gt;human -->
<g id="edge24" class="edge">
<title>fallback_acoes&#45;&gt;human</title>
<path fill="none" stroke="black" d="M1199.14,-399.7C1207.26,-391.22 1217.17,-380.86 1226.05,-371.58"/>
<polygon fill="black" stroke="black" points="1228.82,-373.75 1233.21,-364.1 1223.77,-368.91 1228.82,-373.75"/>
</g>
<!-- robo -->
<g id="node35" class="node">
<title>robo</title>
<polygon fill="cyan" stroke="black" points="1904.07,-338.54 1904.07,-353.46 1885.63,-364 1859.54,-364 1841.09,-353.46 1841.09,-338.54 1859.54,-328 1885.63,-328 1904.07,-338.54"/>
<text text-anchor="middle" x="1872.58" y="-343.8" font-family="Times,serif" font-size="9.00">Ⓜ robo</text>
</g>
<!-- fallback_acoes&#45;&gt;robo -->
<g id="edge34" class="edge">
<title>fallback_acoes&#45;&gt;robo</title>
<path fill="none" stroke="black" d="M1242.01,-410.97C1378.93,-397.08 1713.84,-363.1 1831.16,-351.2"/>
<polygon fill="black" stroke="black" points="1831.58,-354.68 1841.18,-350.19 1830.88,-347.71 1831.58,-354.68"/>
</g>
<!-- robo_aleatorio -->
<g id="node45" class="node">
<title>robo_aleatorio</title>
<polygon fill="orange" stroke="black" points="2452.08,-364 2357.08,-364 2357.08,-328 2452.08,-328 2452.08,-364"/>
<text text-anchor="middle" x="2404.58" y="-343.8" font-family="Times,serif" font-size="9.00">Ⓜ robo_aleatorio</text>
</g>
<!-- fallback_acoes&#45;&gt;robo_aleatorio -->
<g id="edge44" class="edge">
<title>fallback_acoes&#45;&gt;robo_aleatorio</title>
<path fill="none" stroke="black" d="M1241.93,-413.6C1449.47,-401.71 2141.16,-362.09 2346.58,-350.32"/>
<polygon fill="black" stroke="black" points="2347.06,-353.8 2356.85,-349.73 2346.66,-346.81 2347.06,-353.8"/>
</g>
<!-- Botao -->
<g id="node26" class="node">
<title>Botao</title>
<polygon fill="orange" stroke="black" points="983.08,-282 928.08,-282 928.08,-246 983.08,-246 983.08,-282"/>
<text text-anchor="middle" x="955.58" y="-261.8" font-family="Times,serif" font-size="9.00">Ⓜ Botao</text>
</g>
<!-- human&#45;&gt;Botao -->
<g id="edge25" class="edge">
<title>human&#45;&gt;Botao</title>
<path fill="none" stroke="black" d="M1220.91,-334.07C1214.9,-331.93 1208.56,-329.8 1202.58,-328 1137.34,-308.38 1119.54,-309.05 1053.58,-292 1033.54,-286.82 1011.29,-280.72 993.07,-275.63"/>
<polygon fill="black" stroke="black" points="993.97,-272.25 983.4,-272.92 992.08,-278.99 993.97,-272.25"/>
</g>
<!-- Ande_raiva -->
<g id="node29" class="node">
<title>Ande_raiva</title>
<polygon fill="gold" stroke="black" points="1240.9,-292 1098.81,-292 1062.26,-236 1204.35,-236 1240.9,-292"/>
<text text-anchor="middle" x="1151.58" y="-266.8" font-family="Times,serif" font-size="9.00">Ande_raiva</text>
<text text-anchor="middle" x="1151.58" y="-256.8" font-family="Times,serif" font-size="9.00">SuccessOnOne</text>
</g>
<!-- human&#45;&gt;Ande_raiva -->
<g id="edge28" class="edge">
<title>human&#45;&gt;Ande_raiva</title>
<path fill="none" stroke="black" d="M1230.68,-329.58C1219.91,-320.78 1205.96,-309.39 1192.78,-298.63"/>
<polygon fill="black" stroke="black" points="1194.67,-295.65 1184.71,-292.04 1190.24,-301.08 1194.67,-295.65"/>
</g>
<!-- Analogico -->
<g id="node32" class="node">
<title>Analogico</title>
<polygon fill="gold" stroke="black" points="1436.9,-292 1294.81,-292 1258.26,-236 1400.35,-236 1436.9,-292"/>
<text text-anchor="middle" x="1347.58" y="-266.8" font-family="Times,serif" font-size="9.00">Analogico</text>
<text text-anchor="middle" x="1347.58" y="-256.8" font-family="Times,serif" font-size="9.00">SuccessOnOne</text>
</g>
<!-- human&#45;&gt;Analogico -->
<g id="edge31" class="edge">
<title>human&#45;&gt;Analogico</title>
<path fill="none" stroke="black" d="M1268.48,-329.58C1279.25,-320.78 1293.2,-309.39 1306.38,-298.63"/>
<polygon fill="black" stroke="black" points="1308.92,-301.08 1314.45,-292.04 1304.49,-295.65 1308.92,-301.08"/>
</g>
<!-- Botao_apertado -->
<g id="node27" class="node">
<title>Botao_apertado</title>
<ellipse fill="gray" stroke="black" cx="831.58" cy="-182" rx="51.27" ry="18"/>
<text text-anchor="middle" x="831.58" y="-179.8" font-family="Times,serif" font-size="9.00">Botao_apertado</text>
</g>
<!-- Botao&#45;&gt;Botao_apertado -->
<g id="edge26" class="edge">
<title>Botao&#45;&gt;Botao_apertado</title>
<path fill="none" stroke="black" d="M928.98,-245.84C909.89,-233.52 884.06,-216.86 863.8,-203.78"/>
<polygon fill="black" stroke="black" points="865.51,-200.72 855.21,-198.24 861.71,-206.61 865.51,-200.72"/>
</g>
<!-- expressao_risada -->
<g id="node28" class="node">
<title>expressao_risada</title>
<ellipse fill="gray" stroke="black" cx="955.58" cy="-182" rx="54.7" ry="18"/>
<text text-anchor="middle" x="955.58" y="-179.8" font-family="Times,serif" font-size="9.00">expressao_risada</text>
</g>
<!-- Botao&#45;&gt;expressao_risada -->
<g id="edge27" class="edge">
<title>Botao&#45;&gt;expressao_risada</title>
<path fill="none" stroke="black" d="M955.58,-245.64C955.58,-235.3 955.58,-221.94 955.58,-210.22"/>
<polygon fill="black" stroke="black" points="959.08,-210.05 955.58,-200.05 952.08,-210.05 959.08,-210.05"/>
</g>
<!-- Anda_frente -->
<g id="node30" class="node">
<title>Anda_frente</title>
<ellipse fill="gray" stroke="black" cx="1070.58" cy="-182" rx="42.29" ry="18"/>
<text text-anchor="middle" x="1070.58" y="-179.8" font-family="Times,serif" font-size="9.00">Anda_frente</text>
</g>
<!-- Ande_raiva&#45;&gt;Anda_frente -->
<g id="edge29" class="edge">
<title>Ande_raiva&#45;&gt;Anda_frente</title>
<path fill="none" stroke="black" d="M1124.16,-235.92C1114.31,-226.19 1103.3,-215.32 1093.84,-205.97"/>
<polygon fill="black" stroke="black" points="1096.21,-203.39 1086.63,-198.85 1091.29,-208.37 1096.21,-203.39"/>
</g>
<!-- Expressao_raiva -->
<g id="node31" class="node">
<title>Expressao_raiva</title>
<ellipse fill="gray" stroke="black" cx="1183.58" cy="-182" rx="53.23" ry="18"/>
<text text-anchor="middle" x="1183.58" y="-179.8" font-family="Times,serif" font-size="9.00">Expressao_raiva</text>
</g>
<!-- Ande_raiva&#45;&gt;Expressao_raiva -->
<g id="edge30" class="edge">
<title>Ande_raiva&#45;&gt;Expressao_raiva</title>
<path fill="none" stroke="black" d="M1162.41,-235.92C1165.8,-227.44 1169.54,-218.11 1172.91,-209.67"/>
<polygon fill="black" stroke="black" points="1176.21,-210.86 1176.67,-200.27 1169.71,-208.26 1176.21,-210.86"/>
</g>
<!-- Direcional_dif_zero -->
<g id="node33" class="node">
<title>Direcional_dif_zero</title>
<ellipse fill="gray" stroke="black" cx="1315.58" cy="-182" rx="60.74" ry="18"/>
<text text-anchor="middle" x="1315.58" y="-179.8" font-family="Times,serif" font-size="9.00">Direcional_dif_zero</text>
</g>
<!-- Analogico&#45;&gt;Direcional_dif_zero -->
<g id="edge32" class="edge">
<title>Analogico&#45;&gt;Direcional_dif_zero</title>
<path fill="none" stroke="black" d="M1336.75,-235.92C1333.36,-227.44 1329.62,-218.11 1326.25,-209.67"/>
<polygon fill="black" stroke="black" points="1329.45,-208.26 1322.49,-200.27 1322.95,-210.86 1329.45,-208.26"/>
</g>
<!-- Expressao_adaptativa -->
<g id="node34" class="node">
<title>Expressao_adaptativa</title>
<ellipse fill="gray" stroke="black" cx="1461.58" cy="-182" rx="67.6" ry="18"/>
<text text-anchor="middle" x="1461.58" y="-179.8" font-family="Times,serif" font-size="9.00">Expressao_adaptativa</text>
</g>
<!-- Analogico&#45;&gt;Expressao_adaptativa -->
<g id="edge33" class="edge">
<title>Analogico&#45;&gt;Expressao_adaptativa</title>
<path fill="none" stroke="black" d="M1386.18,-235.92C1400.48,-225.88 1416.52,-214.62 1430.12,-205.08"/>
<polygon fill="black" stroke="black" points="1432.48,-207.7 1438.66,-199.09 1428.46,-201.97 1432.48,-207.7"/>
</g>
<!-- sono -->
<g id="node36" class="node">
<title>sono</title>
<polygon fill="orange" stroke="black" points="1817.58,-282 1763.58,-282 1763.58,-246 1817.58,-246 1817.58,-282"/>
<text text-anchor="middle" x="1790.58" y="-261.8" font-family="Times,serif" font-size="9.00">Ⓜ sono</text>
</g>
<!-- robo&#45;&gt;sono -->
<g id="edge35" class="edge">
<title>robo&#45;&gt;sono</title>
<path fill="none" stroke="black" d="M1856.77,-329.58C1845.1,-318.19 1828.98,-302.46 1815.57,-289.38"/>
<polygon fill="black" stroke="black" points="1817.65,-286.52 1808.05,-282.04 1812.76,-291.53 1817.65,-286.52"/>
</g>
<!-- tedio -->
<g id="node39" class="node">
<title>tedio</title>
<polygon fill="orange" stroke="black" points="1981.58,-282 1927.58,-282 1927.58,-246 1981.58,-246 1981.58,-282"/>
<text text-anchor="middle" x="1954.58" y="-261.8" font-family="Times,serif" font-size="9.00">Ⓜ tedio</text>
</g>
<!-- robo&#45;&gt;tedio -->
<g id="edge38" class="edge">
<title>robo&#45;&gt;tedio</title>
<path fill="none" stroke="black" d="M1888.39,-329.58C1900.06,-318.19 1916.18,-302.46 1929.59,-289.38"/>
<polygon fill="black" stroke="black" points="1932.4,-291.53 1937.11,-282.04 1927.51,-286.52 1932.4,-291.53"/>
</g>
<!-- sem_acao -->
<g id="node42" class="node">
<title>sem_acao</title>
<polygon fill="orange" stroke="black" points="2306.58,-282 2234.58,-282 2234.58,-246 2306.58,-246 2306.58,-282"/>
<text text-anchor="middle" x="2270.58" y="-261.8" font-family="Times,serif" font-size="9.00">Ⓜ sem_acao</text>
</g>
<!-- robo&#45;&gt;sem_acao -->
<g id="edge41" class="edge">
<title>robo&#45;&gt;sem_acao</title>
<path fill="none" stroke="black" d="M1904.14,-338.66C1974.14,-324.59 2142.65,-290.71 2224.47,-274.27"/>
<polygon fill="black" stroke="black" points="2225.36,-277.66 2234.47,-272.26 2223.98,-270.8 2225.36,-277.66"/>
</g>
<!-- Contagem_sono_maior_q_x -->
<g id="node37" class="node">
<title>Contagem_sono_maior_q_x</title>
<ellipse fill="gray" stroke="black" cx="1627.58" cy="-182" rx="80.66" ry="18"/>
<text text-anchor="middle" x="1627.58" y="-179.8" font-family="Times,serif" font-size="9.00">Contagem_sono_maior_q_x</text>
</g>
<!-- sono&#45;&gt;Contagem_sono_maior_q_x -->
<g id="edge36" class="edge">
<title>sono&#45;&gt;Contagem_sono_maior_q_x</title>
<path fill="none" stroke="black" d="M1763.3,-249.61C1737.46,-236.93 1698.3,-217.71 1668.68,-203.17"/>
<polygon fill="black" stroke="black" points="1669.95,-199.9 1659.43,-198.63 1666.86,-206.18 1669.95,-199.9"/>
</g>
<!-- expressao_dormindo -->
<g id="node38" class="node">
<title>expressao_dormindo</title>
<ellipse fill="gray" stroke="black" cx="1790.58" cy="-182" rx="64.17" ry="18"/>
<text text-anchor="middle" x="1790.58" y="-179.8" font-family="Times,serif" font-size="9.00">expressao_dormindo</text>
</g>
<!-- sono&#45;&gt;expressao_dormindo -->
<g id="edge37" class="edge">
<title>sono&#45;&gt;expressao_dormindo</title>
<path fill="none" stroke="black" d="M1790.58,-245.64C1790.58,-235.3 1790.58,-221.94 1790.58,-210.22"/>
<polygon fill="black" stroke="black" points="1794.08,-210.05 1790.58,-200.05 1787.08,-210.05 1794.08,-210.05"/>
</g>
<!-- Contagem_tedio_maior_q_x -->
<g id="node40" class="node">
<title>Contagem_tedio_maior_q_x</title>
<ellipse fill="gray" stroke="black" cx="1954.58" cy="-182" rx="81.97" ry="18"/>
<text text-anchor="middle" x="1954.58" y="-179.8" font-family="Times,serif" font-size="9.00">Contagem_tedio_maior_q_x</text>
</g>
<!-- tedio&#45;&gt;Contagem_tedio_maior_q_x -->
<g id="edge39" class="edge">
<title>tedio&#45;&gt;Contagem_tedio_maior_q_x</title>
<path fill="none" stroke="black" d="M1954.58,-245.64C1954.58,-235.3 1954.58,-221.94 1954.58,-210.22"/>
<polygon fill="black" stroke="black" points="1958.08,-210.05 1954.58,-200.05 1951.08,-210.05 1958.08,-210.05"/>
</g>
<!-- expressao_sono -->
<g id="node41" class="node">
<title>expressao_sono</title>
<ellipse fill="gray" stroke="black" cx="2105.58" cy="-182" rx="50.61" ry="18"/>
<text text-anchor="middle" x="2105.58" y="-179.8" font-family="Times,serif" font-size="9.00">expressao_sono</text>
</g>
<!-- tedio&#45;&gt;expressao_sono -->
<g id="edge40" class="edge">
<title>tedio&#45;&gt;expressao_sono</title>
<path fill="none" stroke="black" d="M1981.93,-248.51C2006.41,-235.54 2042.48,-216.43 2069.35,-202.19"/>
<polygon fill="black" stroke="black" points="2071.24,-205.15 2078.44,-197.38 2067.96,-198.97 2071.24,-205.15"/>
</g>
<!-- Esta_x_tempo_sem_acao_externa -->
<g id="node43" class="node">
<title>Esta_x_tempo_sem_acao_externa</title>
<ellipse fill="gray" stroke="black" cx="2270.58" cy="-182" rx="96.34" ry="18"/>
<text text-anchor="middle" x="2270.58" y="-179.8" font-family="Times,serif" font-size="9.00">Esta_x_tempo_sem_acao_externa</text>
</g>
<!-- sem_acao&#45;&gt;Esta_x_tempo_sem_acao_externa -->
<g id="edge42" class="edge">
<title>sem_acao&#45;&gt;Esta_x_tempo_sem_acao_externa</title>
<path fill="none" stroke="black" d="M2270.58,-245.64C2270.58,-235.3 2270.58,-221.94 2270.58,-210.22"/>
<polygon fill="black" stroke="black" points="2274.08,-210.05 2270.58,-200.05 2267.08,-210.05 2274.08,-210.05"/>
</g>
<!-- expressao_tedio -->
<g id="node44" class="node">
<title>expressao_tedio</title>
<ellipse fill="gray" stroke="black" cx="2436.58" cy="-182" rx="51.92" ry="18"/>
<text text-anchor="middle" x="2436.58" y="-179.8" font-family="Times,serif" font-size="9.00">expressao_tedio</text>
</g>
<!-- sem_acao&#45;&gt;expressao_tedio -->
<g id="edge43" class="edge">
<title>sem_acao&#45;&gt;expressao_tedio</title>
<path fill="none" stroke="black" d="M2306.19,-245.84C2333.32,-232.76 2370.62,-214.79 2398.37,-201.41"/>
<polygon fill="black" stroke="black" points="2399.9,-204.56 2407.39,-197.07 2396.86,-198.26 2399.9,-204.56"/>
</g>
<!-- Valor_aleatorio -->
<g id="node46" class="node">
<title>Valor_aleatorio</title>
<ellipse fill="gray" stroke="black" cx="2404.58" cy="-264" rx="49.8" ry="18"/>
<text text-anchor="middle" x="2404.58" y="-261.8" font-family="Times,serif" font-size="9.00">Valor_aleatorio</text>
</g>
<!-- robo_aleatorio&#45;&gt;Valor_aleatorio -->
<g id="edge45" class="edge">
<title>robo_aleatorio&#45;&gt;Valor_aleatorio</title>
<path fill="none" stroke="black" d="M2404.58,-327.64C2404.58,-317.3 2404.58,-303.94 2404.58,-292.22"/>
<polygon fill="black" stroke="black" points="2408.08,-292.05 2404.58,-282.05 2401.08,-292.05 2408.08,-292.05"/>
</g>
<!-- aleatorio -->
<g id="node47" class="node">
<title>aleatorio</title>
<polygon fill="cyan" stroke="black" points="2651.82,-256.54 2651.82,-271.46 2626.49,-282 2590.67,-282 2565.34,-271.46 2565.34,-256.54 2590.67,-246 2626.49,-246 2651.82,-256.54"/>
<text text-anchor="middle" x="2608.58" y="-261.8" font-family="Times,serif" font-size="9.00">Ⓜ aleatorio</text>
</g>
<!-- robo_aleatorio&#45;&gt;aleatorio -->
<g id="edge46" class="edge">
<title>robo_aleatorio&#45;&gt;aleatorio</title>
<path fill="none" stroke="black" d="M2448.09,-327.94C2483.82,-313.93 2534,-294.25 2568.7,-280.64"/>
<polygon fill="black" stroke="black" points="2570.02,-283.88 2578.05,-276.97 2567.46,-277.37 2570.02,-283.88"/>
</g>
<!-- movimento -->
<g id="node48" class="node">
<title>movimento</title>
<polygon fill="orange" stroke="black" points="2585.08,-200 2506.08,-200 2506.08,-164 2585.08,-164 2585.08,-200"/>
<text text-anchor="middle" x="2545.58" y="-179.8" font-family="Times,serif" font-size="9.00">Ⓜ movimento</text>
</g>
<!-- aleatorio&#45;&gt;movimento -->
<g id="edge47" class="edge">
<title>aleatorio&#45;&gt;movimento</title>
<path fill="none" stroke="black" d="M2594.91,-245.64C2586.27,-234.66 2574.95,-220.29 2565.34,-208.09"/>
<polygon fill="black" stroke="black" points="2567.94,-205.74 2559.01,-200.05 2562.44,-210.07 2567.94,-205.74"/>
</g>
<!-- girada -->
<g id="node53" class="node">
<title>girada</title>
<polygon fill="orange" stroke="black" points="2702.08,-200 2643.08,-200 2643.08,-164 2702.08,-164 2702.08,-200"/>
<text text-anchor="middle" x="2672.58" y="-179.8" font-family="Times,serif" font-size="9.00">Ⓜ girada</text>
</g>
<!-- aleatorio&#45;&gt;girada -->
<g id="edge52" class="edge">
<title>aleatorio&#45;&gt;girada</title>
<path fill="none" stroke="black" d="M2622.47,-245.64C2631.25,-234.66 2642.74,-220.29 2652.51,-208.09"/>
<polygon fill="black" stroke="black" points="2655.43,-210.05 2658.94,-200.05 2649.96,-205.67 2655.43,-210.05"/>
</g>
<!-- expressao_Padrao -->
<g id="node58" class="node">
<title>expressao_Padrao</title>
<ellipse fill="gray" stroke="black" cx="2777.58" cy="-182" rx="57.32" ry="18"/>
<text text-anchor="middle" x="2777.58" y="-179.8" font-family="Times,serif" font-size="9.00">expressao_Padrao</text>
</g>
<!-- aleatorio&#45;&gt;expressao_Padrao -->
<g id="edge57" class="edge">
<title>aleatorio&#45;&gt;expressao_Padrao</title>
<path fill="none" stroke="black" d="M2636.11,-249.97C2663.74,-236.89 2706.59,-216.61 2737.89,-201.79"/>
<polygon fill="black" stroke="black" points="2739.67,-204.82 2747.21,-197.38 2736.67,-198.49 2739.67,-204.82"/>
</g>
<!-- Valor_entre_x_e_x  -->
<g id="node49" class="node">
<title>Valor_entre_x_e_x </title>
<ellipse fill="gray" stroke="black" cx="2337.58" cy="-100" rx="58.78" ry="18"/>
<text text-anchor="middle" x="2337.58" y="-97.8" font-family="Times,serif" font-size="9.00">Valor_entre_x_e_x </text>
</g>
<!-- movimento&#45;&gt;Valor_entre_x_e_x  -->
<g id="edge48" class="edge">
<title>movimento&#45;&gt;Valor_entre_x_e_x </title>
<path fill="none" stroke="black" d="M2505.99,-166.21C2477.92,-155.67 2439.38,-141.11 2405.58,-128 2397.66,-124.93 2389.25,-121.62 2381.13,-118.41"/>
<polygon fill="black" stroke="black" points="2382.37,-115.14 2371.78,-114.7 2379.79,-121.64 2382.37,-115.14"/>
</g>
<!-- Paralelo movimento -->
<g id="node50" class="node">
<title>Paralelo movimento</title>
<polygon fill="gold" stroke="black" points="2636.45,-128 2460.08,-128 2414.72,-72 2591.08,-72 2636.45,-128"/>
<text text-anchor="middle" x="2525.58" y="-102.8" font-family="Times,serif" font-size="9.00">Paralelo movimento</text>
<text text-anchor="middle" x="2525.58" y="-92.8" font-family="Times,serif" font-size="9.00">SuccessOnOne</text>
</g>
<!-- movimento&#45;&gt;Paralelo movimento -->
<g id="edge49" class="edge">
<title>movimento&#45;&gt;Paralelo movimento</title>
<path fill="none" stroke="black" d="M2541.24,-163.64C2539.35,-156.1 2537.07,-146.95 2534.83,-138"/>
<polygon fill="black" stroke="black" points="2538.17,-136.93 2532.35,-128.08 2531.38,-138.63 2538.17,-136.93"/>
</g>
<!-- Movimento_baseado_valor -->
<g id="node51" class="node">
<title>Movimento_baseado_valor</title>
<ellipse fill="gray" stroke="black" cx="2475.58" cy="-18" rx="79.19" ry="18"/>
<text text-anchor="middle" x="2475.58" y="-15.8" font-family="Times,serif" font-size="9.00">Movimento_baseado_valor</text>
</g>
<!-- Paralelo movimento&#45;&gt;Movimento_baseado_valor -->
<g id="edge50" class="edge">
<title>Paralelo movimento&#45;&gt;Movimento_baseado_valor</title>
<path fill="none" stroke="black" d="M2508.65,-71.92C2503.19,-63.17 2497.14,-53.5 2491.73,-44.84"/>
<polygon fill="black" stroke="black" points="2494.64,-42.9 2486.38,-36.27 2488.71,-46.61 2494.64,-42.9"/>
</g>
<!-- expressao_sapeca -->
<g id="node52" class="node">
<title>expressao_sapeca</title>
<ellipse fill="gray" stroke="black" cx="2629.58" cy="-18" rx="56.66" ry="18"/>
<text text-anchor="middle" x="2629.58" y="-15.8" font-family="Times,serif" font-size="9.00">expressao_sapeca</text>
</g>
<!-- Paralelo movimento&#45;&gt;expressao_sapeca -->
<g id="edge51" class="edge">
<title>Paralelo movimento&#45;&gt;expressao_sapeca</title>
<path fill="none" stroke="black" d="M2560.79,-71.92C2573.81,-61.9 2588.41,-50.67 2600.8,-41.14"/>
<polygon fill="black" stroke="black" points="2603.18,-43.72 2608.97,-34.85 2598.91,-38.18 2603.18,-43.72"/>
</g>
<!-- Valor_foi_y -->
<g id="node54" class="node">
<title>Valor_foi_y</title>
<ellipse fill="gray" stroke="black" cx="2692.58" cy="-100" rx="38.21" ry="18"/>
<text text-anchor="middle" x="2692.58" y="-97.8" font-family="Times,serif" font-size="9.00">Valor_foi_y</text>
</g>
<!-- girada&#45;&gt;Valor_foi_y -->
<g id="edge53" class="edge">
<title>girada&#45;&gt;Valor_foi_y</title>
<path fill="none" stroke="black" d="M2676.92,-163.64C2679.53,-153.19 2682.91,-139.67 2685.86,-127.86"/>
<polygon fill="black" stroke="black" points="2689.29,-128.6 2688.32,-118.05 2682.5,-126.9 2689.29,-128.6"/>
</g>
<!-- Paralelo giro -->
<g id="node55" class="node">
<title>Paralelo giro</title>
<polygon fill="gold" stroke="black" points="2926.9,-128 2784.81,-128 2748.26,-72 2890.35,-72 2926.9,-128"/>
<text text-anchor="middle" x="2837.58" y="-102.8" font-family="Times,serif" font-size="9.00">Paralelo giro</text>
<text text-anchor="middle" x="2837.58" y="-92.8" font-family="Times,serif" font-size="9.00">SuccessOnOne</text>
</g>
<!-- girada&#45;&gt;Paralelo giro -->
<g id="edge54" class="edge">
<title>girada&#45;&gt;Paralelo giro</title>
<path fill="none" stroke="black" d="M2702.46,-166.51C2722.64,-156.73 2750.03,-143.45 2774.88,-131.4"/>
<polygon fill="black" stroke="black" points="2776.43,-134.54 2783.9,-127.03 2773.37,-128.24 2776.43,-134.54"/>
</g>
<!-- Gire  -->
<g id="node56" class="node">
<title>Gire </title>
<ellipse fill="gray" stroke="black" cx="2786.58" cy="-18" rx="27" ry="18"/>
<text text-anchor="middle" x="2786.58" y="-15.8" font-family="Times,serif" font-size="9.00">Gire </text>
</g>
<!-- Paralelo giro&#45;&gt;Gire  -->
<g id="edge55" class="edge">
<title>Paralelo giro&#45;&gt;Gire </title>
<path fill="none" stroke="black" d="M2820.31,-71.92C2814.42,-62.67 2807.87,-52.39 2802.12,-43.37"/>
<polygon fill="black" stroke="black" points="2805.01,-41.4 2796.69,-34.85 2799.11,-45.17 2805.01,-41.4"/>
</g>
<!-- expressao_alegre -->
<g id="node57" class="node">
<title>expressao_alegre</title>
<ellipse fill="gray" stroke="black" cx="2886.58" cy="-18" rx="55.35" ry="18"/>
<text text-anchor="middle" x="2886.58" y="-15.8" font-family="Times,serif" font-size="9.00">expressao_alegre</text>
</g>
<!-- Paralelo giro&#45;&gt;expressao_alegre -->
<g id="edge56" class="edge">
<title>Paralelo giro&#45;&gt;expressao_alegre</title>
<path fill="none" stroke="black" d="M2854.17,-71.92C2859.61,-63.03 2865.63,-53.2 2871,-44.44"/>
<polygon fill="black" stroke="black" points="2874.05,-46.15 2876.29,-35.79 2868.09,-42.49 2874.05,-46.15"/>
</g>
</g>
</svg>
